<mxfile host="app.diagrams.net" modified="2020-11-16T23:12:37.457Z" agent="5.0 (Windows NT 10.0; Win64; x64) AppleWebKit/537.36 (KHTML, like Gecko) Chrome/86.0.4240.193 Safari/537.36" etag="h8J24k3sK1jbiyJMfxPF" version="13.9.9" type="github">
  <diagram id="cqmuLOnTgPngLbiPMjOf" name="Page-1">
    <mxGraphModel dx="2249" dy="705" grid="1" gridSize="10" guides="1" tooltips="1" connect="1" arrows="1" fold="1" page="1" pageScale="1" pageWidth="827" pageHeight="1169" math="0" shadow="0" extFonts="Permanent Marker^https://fonts.googleapis.com/css?family=Permanent+Marker">
      <root>
        <mxCell id="0" />
        <mxCell id="1" parent="0" />
        <mxCell id="TuhP_Td-ZubxM3KAjsIt-2" value="Waiting" style="ellipse;whiteSpace=wrap;html=1;fontSize=14;fontStyle=1" parent="1" vertex="1">
          <mxGeometry x="80" y="400" width="80" height="80" as="geometry" />
        </mxCell>
        <mxCell id="TuhP_Td-ZubxM3KAjsIt-3" value="Listening" style="ellipse;whiteSpace=wrap;html=1;fontSize=14;fontStyle=1" parent="1" vertex="1">
          <mxGeometry x="280" y="400" width="80" height="80" as="geometry" />
        </mxCell>
        <mxCell id="TuhP_Td-ZubxM3KAjsIt-11" value="" style="curved=1;endArrow=classic;html=1;fontSize=14;entryX=0;entryY=0;entryDx=0;entryDy=0;exitX=1;exitY=0;exitDx=0;exitDy=0;" parent="1" source="TuhP_Td-ZubxM3KAjsIt-2" target="TuhP_Td-ZubxM3KAjsIt-3" edge="1" treatAsSingle="0">
          <mxGeometry width="50" height="50" relative="1" as="geometry">
            <mxPoint x="170" y="420" as="sourcePoint" />
            <mxPoint x="280" y="390" as="targetPoint" />
            <Array as="points">
              <mxPoint x="230" y="370" />
            </Array>
          </mxGeometry>
        </mxCell>
        <mxCell id="TuhP_Td-ZubxM3KAjsIt-15" value="&lt;u&gt;MQTT: LISTEN&lt;/u&gt;&lt;br&gt;Motors: Stop" style="edgeLabel;html=1;align=center;verticalAlign=middle;resizable=0;points=[];fontSize=13;" parent="TuhP_Td-ZubxM3KAjsIt-11" vertex="1" connectable="0">
          <mxGeometry x="0.306" y="1" relative="1" as="geometry">
            <mxPoint x="-22.149999999999995" y="-4.910000000000011" as="offset" />
          </mxGeometry>
        </mxCell>
        <mxCell id="TuhP_Td-ZubxM3KAjsIt-12" value="" style="curved=1;endArrow=classic;html=1;fontSize=14;exitX=1;exitY=1;exitDx=0;exitDy=0;entryX=1;entryY=0;entryDx=0;entryDy=0;" parent="1" source="TuhP_Td-ZubxM3KAjsIt-3" target="TuhP_Td-ZubxM3KAjsIt-50" edge="1" treatAsSingle="0">
          <mxGeometry width="50" height="50" relative="1" as="geometry">
            <mxPoint x="450.00427124746216" y="638.2842712474621" as="sourcePoint" />
            <mxPoint x="450.00427124746216" y="781.7157287525379" as="targetPoint" />
            <Array as="points">
              <mxPoint x="390" y="540" />
            </Array>
          </mxGeometry>
        </mxCell>
        <mxCell id="TuhP_Td-ZubxM3KAjsIt-20" value="&lt;u&gt;Sound Detected&lt;br&gt;&lt;/u&gt;Motors: Go to target" style="edgeLabel;html=1;align=center;verticalAlign=middle;resizable=0;points=[];fontSize=13;" parent="TuhP_Td-ZubxM3KAjsIt-12" vertex="1" connectable="0">
          <mxGeometry x="0.2638" relative="1" as="geometry">
            <mxPoint x="51.08" y="-9.049999999999995" as="offset" />
          </mxGeometry>
        </mxCell>
        <mxCell id="TuhP_Td-ZubxM3KAjsIt-22" value="Transmitting" style="ellipse;whiteSpace=wrap;html=1;fontSize=13;fontStyle=1" parent="1" vertex="1">
          <mxGeometry x="80" y="200" width="80" height="80" as="geometry" />
        </mxCell>
        <mxCell id="TuhP_Td-ZubxM3KAjsIt-23" value="" style="curved=1;endArrow=classic;html=1;fontSize=14;entryX=1;entryY=1;entryDx=0;entryDy=0;exitX=0.7;exitY=0.05;exitDx=0;exitDy=0;exitPerimeter=0;" parent="1" source="TuhP_Td-ZubxM3KAjsIt-2" target="TuhP_Td-ZubxM3KAjsIt-22" edge="1" treatAsSingle="0">
          <mxGeometry width="50" height="50" relative="1" as="geometry">
            <mxPoint x="140" y="390" as="sourcePoint" />
            <mxPoint x="190" y="260" as="targetPoint" />
            <Array as="points">
              <mxPoint x="180" y="330" />
            </Array>
          </mxGeometry>
        </mxCell>
        <mxCell id="TuhP_Td-ZubxM3KAjsIt-25" value="&lt;u&gt;MQTT: TRANSMIT&lt;/u&gt;&lt;br&gt;Motors: Stop&lt;br&gt;Speakers: Play" style="edgeLabel;html=1;align=center;verticalAlign=middle;resizable=0;points=[];fontSize=13;rotation=0;" parent="TuhP_Td-ZubxM3KAjsIt-23" vertex="1" connectable="0">
          <mxGeometry x="-0.204" y="-2" relative="1" as="geometry">
            <mxPoint x="50.589999999999996" y="-61.42999999999999" as="offset" />
          </mxGeometry>
        </mxCell>
        <mxCell id="TuhP_Td-ZubxM3KAjsIt-27" value="&lt;p style=&quot;line-height: 200%&quot;&gt;Idle&lt;/p&gt;" style="ellipse;whiteSpace=wrap;html=1;fontSize=14;fontStyle=1;strokeWidth=3;" parent="1" vertex="1">
          <mxGeometry x="-120" y="400" width="80" height="80" as="geometry" />
        </mxCell>
        <mxCell id="TuhP_Td-ZubxM3KAjsIt-29" value="" style="curved=1;endArrow=classic;html=1;fontSize=14;entryX=0;entryY=0;entryDx=0;entryDy=0;exitX=1;exitY=0;exitDx=0;exitDy=0;" parent="1" edge="1" treatAsSingle="0">
          <mxGeometry width="50" height="50" relative="1" as="geometry">
            <mxPoint x="-49.99572875253833" y="411.7157287525383" as="sourcePoint" />
            <mxPoint x="93.43572875253787" y="411.71572875253787" as="targetPoint" />
            <Array as="points">
              <mxPoint x="-18.28" y="390" />
              <mxPoint x="61.72" y="390" />
            </Array>
          </mxGeometry>
        </mxCell>
        <mxCell id="TuhP_Td-ZubxM3KAjsIt-30" value="&lt;u&gt;MQTT: FIND_MODE&lt;/u&gt;" style="edgeLabel;html=1;align=center;verticalAlign=middle;resizable=0;points=[];fontSize=13;" parent="TuhP_Td-ZubxM3KAjsIt-29" vertex="1" connectable="0">
          <mxGeometry x="0.306" y="1" relative="1" as="geometry">
            <mxPoint x="-35.28" y="-19" as="offset" />
          </mxGeometry>
        </mxCell>
        <mxCell id="TuhP_Td-ZubxM3KAjsIt-31" value="Driving" style="ellipse;whiteSpace=wrap;html=1;fontSize=14;fontStyle=1" parent="1" vertex="1">
          <mxGeometry x="-320" y="400" width="80" height="80" as="geometry" />
        </mxCell>
        <mxCell id="TuhP_Td-ZubxM3KAjsIt-37" value="Listening" style="ellipse;whiteSpace=wrap;html=1;fontSize=14;fontStyle=1" parent="1" vertex="1">
          <mxGeometry x="-520" y="400" width="80" height="80" as="geometry" />
        </mxCell>
        <mxCell id="TuhP_Td-ZubxM3KAjsIt-40" value="Crossing" style="ellipse;whiteSpace=wrap;html=1;fontSize=14;fontStyle=1" parent="1" vertex="1">
          <mxGeometry x="-320" y="600" width="80" height="80" as="geometry" />
        </mxCell>
        <mxCell id="TuhP_Td-ZubxM3KAjsIt-41" value="Waiting" style="ellipse;whiteSpace=wrap;html=1;fontSize=14;fontStyle=1" parent="1" vertex="1">
          <mxGeometry x="-520" y="200" width="80" height="80" as="geometry" />
        </mxCell>
        <mxCell id="TuhP_Td-ZubxM3KAjsIt-44" value="" style="curved=1;endArrow=classic;html=1;fontSize=14;entryX=1;entryY=0;entryDx=0;entryDy=0;exitX=0;exitY=0;exitDx=0;exitDy=0;" parent="1" source="TuhP_Td-ZubxM3KAjsIt-27" target="TuhP_Td-ZubxM3KAjsIt-31" edge="1" treatAsSingle="0">
          <mxGeometry width="50" height="50" relative="1" as="geometry">
            <mxPoint x="-130" y="330" as="sourcePoint" />
            <mxPoint x="-250" y="400" as="targetPoint" />
            <Array as="points">
              <mxPoint x="-180" y="380" />
            </Array>
          </mxGeometry>
        </mxCell>
        <mxCell id="TuhP_Td-ZubxM3KAjsIt-45" value="&lt;u&gt;MQTT: INTERSECTION_MODE&lt;br&gt;&lt;/u&gt;Motors: Stop" style="edgeLabel;html=1;align=center;verticalAlign=middle;resizable=0;points=[];fontSize=13;" parent="TuhP_Td-ZubxM3KAjsIt-44" vertex="1" connectable="0">
          <mxGeometry x="0.306" y="1" relative="1" as="geometry">
            <mxPoint x="11.159999999999998" y="-20.6" as="offset" />
          </mxGeometry>
        </mxCell>
        <mxCell id="TuhP_Td-ZubxM3KAjsIt-46" value="" style="curved=1;endArrow=classic;html=1;fontSize=14;exitX=0;exitY=0;exitDx=0;exitDy=0;entryX=1;entryY=0;entryDx=0;entryDy=0;" parent="1" target="TuhP_Td-ZubxM3KAjsIt-37" edge="1" treatAsSingle="0">
          <mxGeometry width="50" height="50" relative="1" as="geometry">
            <mxPoint x="-306.56427124746165" y="409.99572875253807" as="sourcePoint" />
            <mxPoint x="-410" y="420" as="targetPoint" />
            <Array as="points">
              <mxPoint x="-378.28" y="378.28" />
            </Array>
          </mxGeometry>
        </mxCell>
        <mxCell id="TuhP_Td-ZubxM3KAjsIt-47" value="&lt;u&gt;Line Detected&lt;br&gt;&lt;/u&gt;Motors: Stop" style="edgeLabel;html=1;align=center;verticalAlign=middle;resizable=0;points=[];fontSize=13;" parent="TuhP_Td-ZubxM3KAjsIt-46" vertex="1" connectable="0">
          <mxGeometry x="0.306" y="1" relative="1" as="geometry">
            <mxPoint x="41.15" y="-19.79" as="offset" />
          </mxGeometry>
        </mxCell>
        <mxCell id="TuhP_Td-ZubxM3KAjsIt-50" value="&lt;span style=&quot;font-size: 13px&quot;&gt;Driving&lt;/span&gt;" style="ellipse;whiteSpace=wrap;html=1;fontSize=14;fontStyle=1" parent="1" vertex="1">
          <mxGeometry x="280" y="600" width="80" height="80" as="geometry" />
        </mxCell>
        <mxCell id="TuhP_Td-ZubxM3KAjsIt-51" value="" style="curved=1;endArrow=classic;html=1;fontSize=14;exitX=1;exitY=1;exitDx=0;exitDy=0;entryX=0;entryY=1;entryDx=0;entryDy=0;" parent="1" source="TuhP_Td-ZubxM3KAjsIt-31" target="TuhP_Td-ZubxM3KAjsIt-27" edge="1" treatAsSingle="0">
          <mxGeometry width="50" height="50" relative="1" as="geometry">
            <mxPoint x="-250" y="500" as="sourcePoint" />
            <mxPoint x="-107" y="510" as="targetPoint" />
            <Array as="points">
              <mxPoint x="-180" y="500" />
            </Array>
          </mxGeometry>
        </mxCell>
        <mxCell id="TuhP_Td-ZubxM3KAjsIt-52" value="&lt;u&gt;Bumper hit&lt;/u&gt;&lt;br&gt;Motors: Stop" style="edgeLabel;html=1;align=center;verticalAlign=middle;resizable=0;points=[];fontSize=13;" parent="TuhP_Td-ZubxM3KAjsIt-51" vertex="1" connectable="0">
          <mxGeometry x="0.306" y="1" relative="1" as="geometry">
            <mxPoint x="-20.979999999999997" y="10.45" as="offset" />
          </mxGeometry>
        </mxCell>
        <mxCell id="v2fPIsg1SWx9EA068CdU-4" value="" style="curved=1;endArrow=classic;html=1;fontSize=14;exitX=0;exitY=1;exitDx=0;exitDy=0;entryX=0.275;entryY=0.075;entryDx=0;entryDy=0;entryPerimeter=0;" parent="1" source="TuhP_Td-ZubxM3KAjsIt-22" target="TuhP_Td-ZubxM3KAjsIt-2" edge="1" treatAsSingle="0">
          <mxGeometry width="50" height="50" relative="1" as="geometry">
            <mxPoint x="-63.43572875253787" y="520.0042712474622" as="sourcePoint" />
            <mxPoint x="79.99572875253787" y="520.0042712474622" as="targetPoint" />
            <Array as="points">
              <mxPoint x="70" y="340" />
            </Array>
          </mxGeometry>
        </mxCell>
        <mxCell id="v2fPIsg1SWx9EA068CdU-7" value="&lt;u&gt;Sound Finished&lt;/u&gt;&lt;br&gt;" style="edgeLabel;html=1;align=center;verticalAlign=middle;resizable=0;points=[];fontSize=13;" parent="v2fPIsg1SWx9EA068CdU-4" vertex="1" connectable="0">
          <mxGeometry x="0.136" y="-15" relative="1" as="geometry">
            <mxPoint x="-30.459999999999997" y="-75.33999999999999" as="offset" />
          </mxGeometry>
        </mxCell>
        <mxCell id="v2fPIsg1SWx9EA068CdU-8" value="" style="curved=1;endArrow=classic;html=1;fontSize=14;exitX=0;exitY=1;exitDx=0;exitDy=0;entryX=0;entryY=0;entryDx=0;entryDy=0;" parent="1" source="TuhP_Td-ZubxM3KAjsIt-37" target="gtp2bWd0-n7P0y5u2XUp-1" edge="1" treatAsSingle="0">
          <mxGeometry width="50" height="50" relative="1" as="geometry">
            <mxPoint x="-296.56427124746165" y="419.99572875253807" as="sourcePoint" />
            <mxPoint x="-441.71572875253787" y="421.71572875253787" as="targetPoint" />
            <Array as="points">
              <mxPoint x="-550" y="540" />
            </Array>
          </mxGeometry>
        </mxCell>
        <mxCell id="v2fPIsg1SWx9EA068CdU-9" value="&lt;u&gt;Free to go&lt;br&gt;&lt;/u&gt;Speakers: Play" style="edgeLabel;html=1;align=center;verticalAlign=middle;resizable=0;points=[];fontSize=13;" parent="v2fPIsg1SWx9EA068CdU-8" vertex="1" connectable="0">
          <mxGeometry x="0.306" y="1" relative="1" as="geometry">
            <mxPoint x="-53.45" y="-31.14" as="offset" />
          </mxGeometry>
        </mxCell>
        <mxCell id="v2fPIsg1SWx9EA068CdU-10" value="" style="curved=1;endArrow=classic;html=1;fontSize=14;exitX=1;exitY=0.5;exitDx=0;exitDy=0;entryX=0.35;entryY=0.975;entryDx=0;entryDy=0;entryPerimeter=0;" parent="1" source="TuhP_Td-ZubxM3KAjsIt-40" target="TuhP_Td-ZubxM3KAjsIt-27" edge="1" treatAsSingle="0">
          <mxGeometry width="50" height="50" relative="1" as="geometry">
            <mxPoint x="-319.99572875253784" y="630.0042712474622" as="sourcePoint" />
            <mxPoint x="-100" y="510" as="targetPoint" />
            <Array as="points">
              <mxPoint x="-130" y="640" />
            </Array>
          </mxGeometry>
        </mxCell>
        <mxCell id="v2fPIsg1SWx9EA068CdU-11" value="&lt;u&gt;Line Detected&lt;/u&gt;&lt;br&gt;Motors: Stop" style="edgeLabel;html=1;align=center;verticalAlign=middle;resizable=0;points=[];fontSize=13;" parent="v2fPIsg1SWx9EA068CdU-10" vertex="1" connectable="0">
          <mxGeometry x="0.306" y="1" relative="1" as="geometry">
            <mxPoint x="-75.01" y="13.380000000000003" as="offset" />
          </mxGeometry>
        </mxCell>
        <mxCell id="v2fPIsg1SWx9EA068CdU-12" value="" style="curved=1;endArrow=classic;html=1;fontSize=14;exitX=0;exitY=0;exitDx=0;exitDy=0;entryX=0;entryY=1;entryDx=0;entryDy=0;" parent="1" source="TuhP_Td-ZubxM3KAjsIt-37" target="TuhP_Td-ZubxM3KAjsIt-41" edge="1" treatAsSingle="0">
          <mxGeometry width="50" height="50" relative="1" as="geometry">
            <mxPoint x="-538.2842712474621" y="403.4357287525379" as="sourcePoint" />
            <mxPoint x="-538.2842712474621" y="260.00427124746216" as="targetPoint" />
            <Array as="points">
              <mxPoint x="-560" y="330" />
            </Array>
          </mxGeometry>
        </mxCell>
        <mxCell id="v2fPIsg1SWx9EA068CdU-13" value="&lt;u&gt;Give Priority&lt;/u&gt;&lt;br&gt;Set Timer" style="edgeLabel;html=1;align=center;verticalAlign=middle;resizable=0;points=[];fontSize=13;" parent="v2fPIsg1SWx9EA068CdU-12" vertex="1" connectable="0">
          <mxGeometry x="0.136" y="-15" relative="1" as="geometry">
            <mxPoint x="-34.26" y="-46.34" as="offset" />
          </mxGeometry>
        </mxCell>
        <mxCell id="v2fPIsg1SWx9EA068CdU-17" value="" style="curved=1;endArrow=classic;html=1;fontSize=14;exitX=1;exitY=1;exitDx=0;exitDy=0;entryX=0.775;entryY=0.075;entryDx=0;entryDy=0;entryPerimeter=0;" parent="1" source="TuhP_Td-ZubxM3KAjsIt-41" target="TuhP_Td-ZubxM3KAjsIt-37" edge="1" treatAsSingle="0">
          <mxGeometry width="50" height="50" relative="1" as="geometry">
            <mxPoint x="-439.99572875253784" y="270.00427124746216" as="sourcePoint" />
            <mxPoint x="-452" y="390" as="targetPoint" />
            <Array as="points">
              <mxPoint x="-410" y="340" />
            </Array>
          </mxGeometry>
        </mxCell>
        <mxCell id="v2fPIsg1SWx9EA068CdU-18" value="&lt;u&gt;Timer Expired&lt;/u&gt;&lt;br&gt;Listen" style="edgeLabel;html=1;align=center;verticalAlign=middle;resizable=0;points=[];fontSize=13;rotation=0;" parent="v2fPIsg1SWx9EA068CdU-17" vertex="1" connectable="0">
          <mxGeometry x="-0.204" y="-2" relative="1" as="geometry">
            <mxPoint x="30.259999999999998" y="-36.339999999999996" as="offset" />
          </mxGeometry>
        </mxCell>
        <mxCell id="v2fPIsg1SWx9EA068CdU-19" value="" style="curved=1;endArrow=classic;html=1;fontSize=14;exitX=0.975;exitY=0.7;exitDx=0;exitDy=0;exitPerimeter=0;entryX=0.5;entryY=1;entryDx=0;entryDy=0;" parent="1" source="TuhP_Td-ZubxM3KAjsIt-40" target="TuhP_Td-ZubxM3KAjsIt-27" edge="1" treatAsSingle="0">
          <mxGeometry width="50" height="50" relative="1" as="geometry">
            <mxPoint x="-430" y="650" as="sourcePoint" />
            <mxPoint x="-60" y="540" as="targetPoint" />
            <Array as="points">
              <mxPoint x="-110" y="680" />
            </Array>
          </mxGeometry>
        </mxCell>
        <mxCell id="v2fPIsg1SWx9EA068CdU-20" value="&lt;u&gt;Bumper hit&lt;/u&gt;&lt;br&gt;Motors: Stop" style="edgeLabel;html=1;align=center;verticalAlign=middle;resizable=0;points=[];fontSize=13;" parent="v2fPIsg1SWx9EA068CdU-19" vertex="1" connectable="0">
          <mxGeometry x="0.306" y="1" relative="1" as="geometry">
            <mxPoint x="-21.739999999999995" y="65.03" as="offset" />
          </mxGeometry>
        </mxCell>
        <mxCell id="v2fPIsg1SWx9EA068CdU-23" value="" style="endArrow=classic;html=1;fontSize=13;entryX=0.5;entryY=0;entryDx=0;entryDy=0;shape=flexArrow;fillColor=#000000;endWidth=6;endSize=4.67;width=4;" parent="1" target="TuhP_Td-ZubxM3KAjsIt-27" edge="1">
          <mxGeometry width="50" height="50" relative="1" as="geometry">
            <mxPoint x="-80" y="350" as="sourcePoint" />
            <mxPoint x="70" y="450" as="targetPoint" />
          </mxGeometry>
        </mxCell>
        <mxCell id="v2fPIsg1SWx9EA068CdU-24" value="" style="curved=1;endArrow=classic;html=1;fontSize=14;exitX=0;exitY=0.5;exitDx=0;exitDy=0;entryX=0.824;entryY=0.907;entryDx=0;entryDy=0;entryPerimeter=0;" parent="1" source="TuhP_Td-ZubxM3KAjsIt-50" target="TuhP_Td-ZubxM3KAjsIt-27" edge="1" treatAsSingle="0">
          <mxGeometry width="50" height="50" relative="1" as="geometry">
            <mxPoint x="495" y="530" as="sourcePoint" />
            <mxPoint x="-30" y="480" as="targetPoint" />
            <Array as="points">
              <mxPoint y="650" />
            </Array>
          </mxGeometry>
        </mxCell>
        <mxCell id="v2fPIsg1SWx9EA068CdU-26" value="&lt;u&gt;Bumper hit&lt;/u&gt;&lt;br&gt;Motors: Stop" style="edgeLabel;html=1;align=center;verticalAlign=middle;resizable=0;points=[];fontSize=13;" parent="v2fPIsg1SWx9EA068CdU-24" vertex="1" connectable="0">
          <mxGeometry x="0.1363" y="-35" relative="1" as="geometry">
            <mxPoint x="26.08" y="45.52000000000001" as="offset" />
          </mxGeometry>
        </mxCell>
        <mxCell id="v2fPIsg1SWx9EA068CdU-27" value="" style="curved=1;endArrow=classic;html=1;fontSize=14;exitX=0.002;exitY=0.625;exitDx=0;exitDy=0;exitPerimeter=0;entryX=0.705;entryY=0.972;entryDx=0;entryDy=0;entryPerimeter=0;" parent="1" source="TuhP_Td-ZubxM3KAjsIt-50" target="TuhP_Td-ZubxM3KAjsIt-27" edge="1" treatAsSingle="0">
          <mxGeometry width="50" height="50" relative="1" as="geometry">
            <mxPoint x="490" y="560" as="sourcePoint" />
            <mxPoint x="-60" y="490" as="targetPoint" />
            <Array as="points">
              <mxPoint x="-30" y="680" />
            </Array>
          </mxGeometry>
        </mxCell>
        <mxCell id="v2fPIsg1SWx9EA068CdU-28" value="&lt;u&gt;Target Found&lt;br&gt;&lt;/u&gt;Motors: Stop" style="edgeLabel;html=1;align=center;verticalAlign=middle;resizable=0;points=[];fontSize=13;" parent="v2fPIsg1SWx9EA068CdU-27" vertex="1" connectable="0">
          <mxGeometry x="0.1363" y="-35" relative="1" as="geometry">
            <mxPoint x="105.84" y="-58.47" as="offset" />
          </mxGeometry>
        </mxCell>
        <mxCell id="v2fPIsg1SWx9EA068CdU-31" value="" style="curved=1;endArrow=classic;html=1;fontSize=14;entryX=0.263;entryY=0.963;entryDx=0;entryDy=0;entryPerimeter=0;exitX=0;exitY=0;exitDx=0;exitDy=0;" parent="1" source="TuhP_Td-ZubxM3KAjsIt-50" target="TuhP_Td-ZubxM3KAjsIt-3" edge="1">
          <mxGeometry width="50" height="50" relative="1" as="geometry">
            <mxPoint x="330" y="560" as="sourcePoint" />
            <mxPoint x="501.71572875253787" y="421.715728752538" as="targetPoint" />
            <Array as="points">
              <mxPoint x="260" y="540" />
            </Array>
          </mxGeometry>
        </mxCell>
        <mxCell id="v2fPIsg1SWx9EA068CdU-40" value="" style="curved=1;endArrow=classic;html=1;fontSize=14;entryX=1;entryY=1;entryDx=0;entryDy=0;exitX=0;exitY=1;exitDx=0;exitDy=0;" parent="1" source="TuhP_Td-ZubxM3KAjsIt-3" target="TuhP_Td-ZubxM3KAjsIt-2" edge="1" treatAsSingle="0">
          <mxGeometry width="50" height="50" relative="1" as="geometry">
            <mxPoint x="358.28427124746213" y="478.2842712474619" as="sourcePoint" />
            <mxPoint x="501.7157287525383" y="478.2842712474619" as="targetPoint" />
            <Array as="points">
              <mxPoint x="220" y="510" />
            </Array>
          </mxGeometry>
        </mxCell>
        <mxCell id="v2fPIsg1SWx9EA068CdU-41" value="&lt;u&gt;No sound Detected&lt;/u&gt;" style="edgeLabel;html=1;align=center;verticalAlign=middle;resizable=0;points=[];fontSize=13;" parent="v2fPIsg1SWx9EA068CdU-40" vertex="1" connectable="0">
          <mxGeometry x="0.2638" relative="1" as="geometry">
            <mxPoint x="18.79" y="0.9299999999999997" as="offset" />
          </mxGeometry>
        </mxCell>
        <mxCell id="v2fPIsg1SWx9EA068CdU-44" value="&lt;u&gt;MQTT: LISTEN&lt;/u&gt;&lt;br&gt;Motors: Stop" style="edgeLabel;html=1;align=center;verticalAlign=middle;resizable=0;points=[];fontSize=13;" parent="1" vertex="1" connectable="0">
          <mxGeometry x="230.0032608932791" y="550.0028013039532" as="geometry" />
        </mxCell>
        <mxCell id="gtp2bWd0-n7P0y5u2XUp-1" value="Transmitting" style="ellipse;whiteSpace=wrap;html=1;fontSize=13;fontStyle=1" parent="1" vertex="1">
          <mxGeometry x="-520" y="600" width="80" height="80" as="geometry" />
        </mxCell>
        <mxCell id="gtp2bWd0-n7P0y5u2XUp-2" value="" style="curved=1;endArrow=classic;html=1;fontSize=14;exitX=1;exitY=0;exitDx=0;exitDy=0;entryX=0;entryY=0;entryDx=0;entryDy=0;" parent="1" source="gtp2bWd0-n7P0y5u2XUp-1" target="TuhP_Td-ZubxM3KAjsIt-40" edge="1" treatAsSingle="0">
          <mxGeometry width="50" height="50" relative="1" as="geometry">
            <mxPoint x="-358.28427124746213" y="478.28427124746213" as="sourcePoint" />
            <mxPoint x="-358.28427124746213" y="621.7157287525379" as="targetPoint" />
            <Array as="points">
              <mxPoint x="-380" y="570" />
            </Array>
          </mxGeometry>
        </mxCell>
        <mxCell id="gtp2bWd0-n7P0y5u2XUp-3" value="&lt;u&gt;Sound Finished&lt;br&gt;&lt;/u&gt;Motors: Forward" style="edgeLabel;html=1;align=center;verticalAlign=middle;resizable=0;points=[];fontSize=13;" parent="gtp2bWd0-n7P0y5u2XUp-2" vertex="1" connectable="0">
          <mxGeometry x="0.306" y="1" relative="1" as="geometry">
            <mxPoint x="-22.140000000000004" y="-11.719999999999999" as="offset" />
          </mxGeometry>
        </mxCell>
      </root>
    </mxGraphModel>
  </diagram>
</mxfile>
